<?xml version="1.0" standalone="no"?>
<!DOCTYPE svg PUBLIC "-//W3C//DTD SVG 20010904//EN"
 "http://www.w3.org/TR/2001/REC-SVG-20010904/DTD/svg10.dtd">
<svg version="1.0" xmlns="http://www.w3.org/2000/svg"
 width="399.000000pt" height="399.000000pt" viewBox="0 0 399.000000 399.000000"
 preserveAspectRatio="xMidYMid meet">

<g transform="translate(0.000000,399.000000) scale(0.100000,-0.100000)"
fill="#000000" stroke="none">
<path d="M1615 3820 c-569 -68 -1029 -460 -1209 -1030 -56 -175 -56 -179 -56
-1287 0 -722 3 -1038 11 -1075 46 -215 217 -372 430 -395 275 -28 527 228 489
499 -27 186 -136 284 -326 294 l-64 3 0 815 c0 865 1 890 49 1028 96 280 323
499 606 584 78 23 108 27 230 28 160 0 219 -12 352 -74 92 -43 145 -77 229
-150 33 -27 63 -50 68 -50 9 0 182 157 320 289 l79 76 -74 68 c-192 177 -442
304 -702 358 -114 23 -321 33 -432 19z"/>
<path d="M2750 3823 c0 -5 104 -109 231 -233 l231 -226 -251 -233 c-276 -257
-291 -277 -311 -404 -7 -48 -8 -105 0 -191 17 -193 -7 -341 -80 -503 -77 -170
-240 -332 -421 -418 -148 -70 -201 -78 -516 -83 l-283 -4 0 -269 0 -269 258 0
c348 0 467 18 692 105 128 50 278 137 383 222 240 197 422 498 488 808 25 116
35 362 20 475 l-11 85 161 155 c89 85 166 157 172 159 5 2 81 -68 168 -155
l159 -159 0 573 0 572 -545 0 c-300 0 -545 -3 -545 -7z"/>
<path d="M1636 2745 c-85 -34 -149 -97 -193 -185 -24 -48 -27 -67 -28 -150 0
-82 4 -103 27 -152 35 -76 95 -138 170 -179 59 -32 69 -34 158 -34 81 0 103 4
150 26 191 89 271 329 172 512 -36 67 -120 141 -187 166 -80 30 -191 28 -269
-4z"/>
</g>
</svg>
