<?xml version="1.0" standalone="no"?>
<!DOCTYPE svg PUBLIC "-//W3C//DTD SVG 20010904//EN"
 "http://www.w3.org/TR/2001/REC-SVG-20010904/DTD/svg10.dtd">
<svg version="1.0" xmlns="http://www.w3.org/2000/svg"
 width="300.000000pt" height="300.000000pt" viewBox="0 0 300.000000 300.000000"
 preserveAspectRatio="xMidYMid meet">

<g transform="translate(0.000000,300.000000) scale(0.100000,-0.100000)"
fill="#000000" stroke="none">
<path d="M563 2623 c-5 -1 -25 -4 -46 -8 -42 -7 -99 -52 -125 -99 -16 -29 -17
-107 -17 -996 0 -531 4 -982 8 -1003 9 -43 55 -100 101 -125 29 -16 108 -17
1016 -17 908 0 987 1 1016 17 44 24 92 82 99 120 3 18 7 232 8 476 l2 442 -92
0 -93 0 0 -435 0 -435 -940 0 -940 0 0 940 0 940 435 0 435 0 0 93 0 92 -430
0 c-236 0 -433 -1 -437 -2z"/>
<path d="M1624 2621 c-2 -2 -4 -44 -4 -93 l0 -88 342 0 343 0 -618 -618 c-339
-339 -617 -621 -617 -627 0 -5 28 -38 62 -72 l63 -63 622 622 623 623 0 -343
0 -343 90 3 90 3 0 498 0 497 -496 3 c-272 1 -498 0 -500 -2z"/>
</g>
</svg>
